<mxfile host="app.diagrams.net" agent="Mozilla/5.0 (Macintosh; Intel Mac OS X 10_15_7) AppleWebKit/537.36 (KHTML, like Gecko) Chrome/131.0.0.0 Safari/537.36" version="24.8.8">
  <diagram name="Página-1" id="i2HeKyQOs6CJXJqSCZWY">
    <mxGraphModel dx="6752" dy="683" grid="1" gridSize="10" guides="1" tooltips="1" connect="1" arrows="1" fold="1" page="1" pageScale="1" pageWidth="2339" pageHeight="3300" math="0" shadow="0">
      <root>
        <mxCell id="0" />
        <mxCell id="1" parent="0" />
        <mxCell id="qdDWc3R9_-XlVuo6wOQ--10" style="edgeStyle=orthogonalEdgeStyle;rounded=0;orthogonalLoop=1;jettySize=auto;html=1;" parent="1" source="qdDWc3R9_-XlVuo6wOQ--4" edge="1">
          <mxGeometry relative="1" as="geometry">
            <mxPoint x="-4110" y="1092.5" as="targetPoint" />
          </mxGeometry>
        </mxCell>
        <mxCell id="qdDWc3R9_-XlVuo6wOQ--4" value="&lt;p style=&quot;margin: 0px; font-variant-numeric: normal; font-variant-east-asian: normal; font-variant-alternates: normal; font-size-adjust: none; font-kerning: auto; font-optical-sizing: auto; font-feature-settings: normal; font-variation-settings: normal; font-variant-position: normal; font-variant-emoji: normal; font-stretch: normal; line-height: normal;&quot; class=&quot;p1&quot;&gt;&lt;font face=&quot;.AppleSystemUIFont&quot;&gt;&lt;span style=&quot;font-size: 15px;&quot;&gt;RegistrarCuponeraIndividual&lt;/span&gt;&lt;/font&gt;&lt;/p&gt;" style="html=1;overflow=block;blockSpacing=1;whiteSpace=wrap;shape=component;align=left;spacingLeft=36;fontSize=13;fontStyle=1;spacing=0;strokeColor=#82b366;strokeOpacity=100;fillOpacity=100;rounded=1;absoluteArcSize=1;arcSize=9;fillColor=#d5e8d4;strokeWidth=1.5;lucidId=lD6s_1Mw1OkF;" parent="1" vertex="1">
          <mxGeometry x="-4420" y="1070" width="250" height="45" as="geometry" />
        </mxCell>
        <mxCell id="qdDWc3R9_-XlVuo6wOQ--5" value="Inicio" style="html=1;overflow=block;blockSpacing=1;whiteSpace=wrap;ellipse;fontSize=16.7;fontColor=#ffffff;align=center;spacing=3.8;strokeColor=#008573;strokeOpacity=100;fillOpacity=100;rounded=1;absoluteArcSize=1;arcSize=9;fillColor=#008a0e;strokeWidth=1.5;lucidId=_B6sFXerDlku;" parent="1" vertex="1">
          <mxGeometry x="-4610" y="1062.5" width="60" height="60" as="geometry" />
        </mxCell>
        <mxCell id="qdDWc3R9_-XlVuo6wOQ--6" style="edgeStyle=orthogonalEdgeStyle;rounded=0;orthogonalLoop=1;jettySize=auto;html=1;entryX=0.085;entryY=0.492;entryDx=0;entryDy=0;entryPerimeter=0;" parent="1" source="qdDWc3R9_-XlVuo6wOQ--5" target="qdDWc3R9_-XlVuo6wOQ--4" edge="1">
          <mxGeometry relative="1" as="geometry" />
        </mxCell>
        <mxCell id="qdDWc3R9_-XlVuo6wOQ--7" value="Request" style="text;html=1;align=center;verticalAlign=middle;resizable=0;points=[];autosize=1;strokeColor=default;fillColor=none;" parent="1" vertex="1">
          <mxGeometry x="-4550" y="1130" width="70" height="30" as="geometry" />
        </mxCell>
        <mxCell id="qdDWc3R9_-XlVuo6wOQ--8" value="{&#xa;&lt;span class=&quot;Apple-converted-space&quot;&gt;&amp;nbsp; &amp;nbsp; &lt;/span&gt;Fraccionamiento = &lt;span class=&quot;s1&quot;&gt;new&lt;/span&gt; Fraccionamiento&#xa;&lt;span class=&quot;Apple-converted-space&quot;&gt;&amp;nbsp; &amp;nbsp; &lt;/span&gt;{&#xa;&lt;span class=&quot;Apple-converted-space&quot;&gt;&amp;nbsp; &amp;nbsp; &amp;nbsp; &amp;nbsp; &lt;/span&gt;ListaRecibos = &lt;span class=&quot;s1&quot;&gt;new&lt;/span&gt; ListaRecibos&#xa;&lt;span class=&quot;Apple-converted-space&quot;&gt;&amp;nbsp; &amp;nbsp; &amp;nbsp; &amp;nbsp; &lt;/span&gt;{&#xa;&lt;span class=&quot;Apple-converted-space&quot;&gt;&amp;nbsp; &amp;nbsp; &amp;nbsp; &amp;nbsp; &amp;nbsp; &amp;nbsp; &lt;/span&gt;&lt;span class=&quot;s1&quot;&gt;new&lt;/span&gt; Recibo&#xa;&lt;span class=&quot;Apple-converted-space&quot;&gt;&amp;nbsp; &amp;nbsp; &amp;nbsp; &amp;nbsp; &amp;nbsp; &amp;nbsp; &lt;/span&gt;{&#xa;&lt;span class=&quot;Apple-converted-space&quot;&gt;&amp;nbsp; &amp;nbsp; &amp;nbsp; &amp;nbsp; &amp;nbsp; &amp;nbsp; &amp;nbsp; &amp;nbsp; &lt;/span&gt;IdRecibo = &lt;span class=&quot;s2&quot;&gt;212170965&lt;/span&gt;,&#xa;&lt;span class=&quot;Apple-converted-space&quot;&gt;&amp;nbsp; &amp;nbsp; &amp;nbsp; &amp;nbsp; &amp;nbsp; &amp;nbsp; &amp;nbsp; &amp;nbsp; &lt;/span&gt;IdProducto = &lt;span class=&quot;s2&quot;&gt;6&lt;/span&gt;,&#xa;&lt;span class=&quot;Apple-converted-space&quot;&gt;&amp;nbsp; &amp;nbsp; &amp;nbsp; &amp;nbsp; &amp;nbsp; &amp;nbsp; &amp;nbsp; &amp;nbsp; &lt;/span&gt;IdRamo = &lt;span class=&quot;s2&quot;&gt;5&lt;/span&gt;&#xa;&lt;span class=&quot;Apple-converted-space&quot;&gt;&amp;nbsp; &amp;nbsp; &amp;nbsp; &amp;nbsp; &amp;nbsp; &amp;nbsp; &lt;/span&gt;}&#xa;&lt;span class=&quot;Apple-converted-space&quot;&gt;&amp;nbsp; &amp;nbsp; &amp;nbsp; &amp;nbsp; &lt;/span&gt;},&#xa;&lt;span class=&quot;Apple-converted-space&quot;&gt;&amp;nbsp; &amp;nbsp; &amp;nbsp; &amp;nbsp; &lt;/span&gt;IdTipoFraccionamiento = &lt;span class=&quot;s2&quot;&gt;1&lt;/span&gt;,&#xa;&lt;span class=&quot;Apple-converted-space&quot;&gt;&amp;nbsp; &amp;nbsp; &amp;nbsp; &amp;nbsp; &lt;/span&gt;IdUsuario = &lt;span class=&quot;s2&quot;&gt;30001&lt;/span&gt;,&#xa;&lt;span class=&quot;Apple-converted-space&quot;&gt;&amp;nbsp; &amp;nbsp; &amp;nbsp; &amp;nbsp; &lt;/span&gt;FechaEfecto = DateTime.Now,&#xa;&lt;span class=&quot;Apple-converted-space&quot;&gt;&amp;nbsp; &amp;nbsp; &amp;nbsp; &amp;nbsp; &lt;/span&gt;IdCliente = &lt;span class=&quot;s3&quot;&gt;&quot;00000074209955&quot;&lt;/span&gt;,&#xa;&lt;span class=&quot;Apple-converted-space&quot;&gt;&amp;nbsp; &amp;nbsp; &amp;nbsp; &amp;nbsp; &lt;/span&gt;PorcentajeCuotaInicial = &lt;span class=&quot;s2&quot;&gt;0&lt;/span&gt;,&#xa;&lt;span class=&quot;Apple-converted-space&quot;&gt;&amp;nbsp; &amp;nbsp; &amp;nbsp; &amp;nbsp; &lt;/span&gt;IdOficina = &lt;span class=&quot;s2&quot;&gt;6&lt;/span&gt;,&#xa;&lt;span class=&quot;Apple-converted-space&quot;&gt;&amp;nbsp; &amp;nbsp; &amp;nbsp; &amp;nbsp; &lt;/span&gt;PorcentajeInteres = &lt;span class=&quot;s2&quot;&gt;15&lt;/span&gt;,&#xa;&lt;span class=&quot;Apple-converted-space&quot;&gt;&amp;nbsp; &amp;nbsp; &amp;nbsp; &amp;nbsp; &lt;/span&gt;NumeroCuotas = &lt;span class=&quot;s2&quot;&gt;3&lt;/span&gt;,&#xa;&lt;span class=&quot;Apple-converted-space&quot;&gt;&amp;nbsp; &amp;nbsp; &amp;nbsp; &amp;nbsp; &lt;/span&gt;IdAutorizacion = &lt;span class=&quot;s3&quot;&gt;&quot;900093&quot;&lt;/span&gt;,&#xa;&lt;span class=&quot;Apple-converted-space&quot;&gt;&amp;nbsp; &amp;nbsp; &amp;nbsp; &amp;nbsp; &lt;/span&gt;IdFrecuenciaPago = &lt;span class=&quot;s2&quot;&gt;2&lt;/span&gt;,&#xa;&lt;span class=&quot;Apple-converted-space&quot;&gt;&amp;nbsp; &amp;nbsp; &amp;nbsp; &amp;nbsp; &lt;/span&gt;IdMoneda = &lt;span class=&quot;s2&quot;&gt;2&lt;/span&gt;,&#xa;&lt;span class=&quot;Apple-converted-space&quot;&gt;&amp;nbsp; &amp;nbsp; &amp;nbsp; &amp;nbsp; &lt;/span&gt;IdPagoComision = &lt;span class=&quot;s3&quot;&gt;&quot;0&quot;&lt;/span&gt;,&#xa;&lt;span class=&quot;Apple-converted-space&quot;&gt;&amp;nbsp; &amp;nbsp; &amp;nbsp; &amp;nbsp; &lt;/span&gt;FechaVencimiento = &lt;span class=&quot;s4&quot;&gt;null&lt;/span&gt;,&#xa;&lt;span class=&quot;Apple-converted-space&quot;&gt;&amp;nbsp; &amp;nbsp; &amp;nbsp; &amp;nbsp; &lt;/span&gt;FechaFinVigenciaPoliza = &lt;span class=&quot;s4&quot;&gt;null&lt;/span&gt;&#xa;&lt;span class=&quot;Apple-converted-space&quot;&gt;&amp;nbsp; &amp;nbsp; &lt;/span&gt;}&#xa;};" style="text;whiteSpace=wrap;html=1;spacing=0;strokeColor=default;" parent="1" vertex="1">
          <mxGeometry x="-4650" y="1170" width="260" height="420" as="geometry" />
        </mxCell>
        <mxCell id="qdDWc3R9_-XlVuo6wOQ--9" value="El objeto &lt;span class=&quot;s1&quot;&gt;FraccionamientoRequest&lt;/span&gt; contiene una propiedad llamada &lt;span class=&quot;s1&quot;&gt;Fraccionamiento&lt;/span&gt; de tipo &lt;span class=&quot;s1&quot;&gt;Fraccionamiento&lt;/span&gt;. Dentro de la clase &lt;span class=&quot;s1&quot;&gt;Fraccionamiento&lt;/span&gt;, se definen las siguientes propiedades principales:&lt;br&gt;&lt;p class=&quot;p2&quot;&gt;&lt;span style=&quot;white-space: pre;&quot;&gt;&amp;nbsp;&amp;nbsp;&amp;nbsp;&amp;nbsp;&lt;/span&gt;•&lt;span style=&quot;white-space: pre;&quot;&gt;&amp;nbsp;&amp;nbsp;&amp;nbsp;&amp;nbsp;&lt;/span&gt;&lt;b&gt;ListaRecibos&lt;/b&gt;: Una lista de objetos &lt;span class=&quot;s1&quot;&gt;Recibo&lt;/span&gt; que incluye detalles como &lt;span class=&quot;s1&quot;&gt;IdRecibo&lt;/span&gt;, &lt;span class=&quot;s1&quot;&gt;IdProducto&lt;/span&gt;, y &lt;span class=&quot;s1&quot;&gt;IdRamo&lt;/span&gt;.&lt;/p&gt;&lt;p class=&quot;p2&quot;&gt;&lt;span style=&quot;white-space: pre;&quot;&gt;&amp;nbsp;&amp;nbsp;&amp;nbsp;&amp;nbsp;&lt;/span&gt;•&lt;span style=&quot;white-space: pre;&quot;&gt;&amp;nbsp;&amp;nbsp;&amp;nbsp;&amp;nbsp;&lt;/span&gt;&lt;b&gt;IdTipoFraccionamiento&lt;/b&gt;: Tipo de fraccionamiento (int).&lt;/p&gt;&lt;p class=&quot;p2&quot;&gt;&lt;span style=&quot;white-space: pre;&quot;&gt;&amp;nbsp;&amp;nbsp;&amp;nbsp;&amp;nbsp;&lt;/span&gt;•&lt;span style=&quot;white-space: pre;&quot;&gt;&amp;nbsp;&amp;nbsp;&amp;nbsp;&amp;nbsp;&lt;/span&gt;&lt;b&gt;IdUsuario&lt;/b&gt;: Identificador del usuario que realiza el registro (int).&lt;/p&gt;&lt;p class=&quot;p2&quot;&gt;&lt;span style=&quot;white-space: pre;&quot;&gt;&amp;nbsp;&amp;nbsp;&amp;nbsp;&amp;nbsp;&lt;/span&gt;•&lt;span style=&quot;white-space: pre;&quot;&gt;&amp;nbsp;&amp;nbsp;&amp;nbsp;&amp;nbsp;&lt;/span&gt;&lt;b&gt;FechaEfecto&lt;/b&gt;: Fecha de efecto del fraccionamiento (DateTime).&lt;/p&gt;&lt;p class=&quot;p2&quot;&gt;&lt;span style=&quot;white-space: pre;&quot;&gt;&amp;nbsp;&amp;nbsp;&amp;nbsp;&amp;nbsp;&lt;/span&gt;•&lt;span style=&quot;white-space: pre;&quot;&gt;&amp;nbsp;&amp;nbsp;&amp;nbsp;&amp;nbsp;&lt;/span&gt;&lt;b&gt;IdCliente&lt;/b&gt;: Identificador del cliente (string).&lt;/p&gt;&lt;p class=&quot;p2&quot;&gt;&lt;span style=&quot;white-space: pre;&quot;&gt;&amp;nbsp;&amp;nbsp;&amp;nbsp;&amp;nbsp;&lt;/span&gt;•&lt;span style=&quot;white-space: pre;&quot;&gt;&amp;nbsp;&amp;nbsp;&amp;nbsp;&amp;nbsp;&lt;/span&gt;&lt;b&gt;PorcentajeCuotaInicial&lt;/b&gt;: Porcentaje de la cuota inicial (float).&lt;/p&gt;&lt;p class=&quot;p2&quot;&gt;&lt;span style=&quot;white-space: pre;&quot;&gt;&amp;nbsp;&amp;nbsp;&amp;nbsp;&amp;nbsp;&lt;/span&gt;•&lt;span style=&quot;white-space: pre;&quot;&gt;&amp;nbsp;&amp;nbsp;&amp;nbsp;&amp;nbsp;&lt;/span&gt;&lt;b&gt;IdOficina&lt;/b&gt;: Identificador de la oficina (int).&lt;/p&gt;&lt;p class=&quot;p2&quot;&gt;&lt;span style=&quot;white-space: pre;&quot;&gt;&amp;nbsp;&amp;nbsp;&amp;nbsp;&amp;nbsp;&lt;/span&gt;•&lt;span style=&quot;white-space: pre;&quot;&gt;&amp;nbsp;&amp;nbsp;&amp;nbsp;&amp;nbsp;&lt;/span&gt;&lt;b&gt;PorcentajeInteres&lt;/b&gt;: Porcentaje de interés (float).&lt;/p&gt;&lt;p class=&quot;p2&quot;&gt;&lt;span style=&quot;white-space: pre;&quot;&gt;&amp;nbsp;&amp;nbsp;&amp;nbsp;&amp;nbsp;&lt;/span&gt;•&lt;span style=&quot;white-space: pre;&quot;&gt;&amp;nbsp;&amp;nbsp;&amp;nbsp;&amp;nbsp;&lt;/span&gt;&lt;b&gt;NumeroCuotas&lt;/b&gt;: Número de cuotas (int).&lt;/p&gt;&lt;p class=&quot;p2&quot;&gt;&lt;span style=&quot;white-space: pre;&quot;&gt;&amp;nbsp;&amp;nbsp;&amp;nbsp;&amp;nbsp;&lt;/span&gt;•&lt;span style=&quot;white-space: pre;&quot;&gt;&amp;nbsp;&amp;nbsp;&amp;nbsp;&amp;nbsp;&lt;/span&gt;&lt;b&gt;IdAutorizacion&lt;/b&gt;: Identificador de autorización (string).&lt;/p&gt;&lt;p class=&quot;p2&quot;&gt;&lt;span style=&quot;white-space: pre;&quot;&gt;&amp;nbsp;&amp;nbsp;&amp;nbsp;&amp;nbsp;&lt;/span&gt;•&lt;span style=&quot;white-space: pre;&quot;&gt;&amp;nbsp;&amp;nbsp;&amp;nbsp;&amp;nbsp;&lt;/span&gt;&lt;b&gt;IdFrecuenciaPago&lt;/b&gt;: Identificador de la frecuencia de pago (int).&lt;/p&gt;&lt;p class=&quot;p2&quot;&gt;&lt;span style=&quot;white-space: pre;&quot;&gt;&amp;nbsp;&amp;nbsp;&amp;nbsp;&amp;nbsp;&lt;/span&gt;•&lt;span style=&quot;white-space: pre;&quot;&gt;&amp;nbsp;&amp;nbsp;&amp;nbsp;&amp;nbsp;&lt;/span&gt;&lt;b&gt;IdMoneda&lt;/b&gt;: Identificador de la moneda (int).&lt;/p&gt;&lt;p class=&quot;p2&quot;&gt;&lt;span style=&quot;white-space: pre;&quot;&gt;&amp;nbsp;&amp;nbsp;&amp;nbsp;&amp;nbsp;&lt;/span&gt;•&lt;span style=&quot;white-space: pre;&quot;&gt;&amp;nbsp;&amp;nbsp;&amp;nbsp;&amp;nbsp;&lt;/span&gt;&lt;b&gt;IdPagoComision&lt;/b&gt;: Identificador del pago de comisión (string).&lt;/p&gt;&lt;p class=&quot;p2&quot;&gt;&lt;span style=&quot;white-space: pre;&quot;&gt;&amp;nbsp;&amp;nbsp;&amp;nbsp;&amp;nbsp;&lt;/span&gt;•&lt;span style=&quot;white-space: pre;&quot;&gt;&amp;nbsp;&amp;nbsp;&amp;nbsp;&amp;nbsp;&lt;/span&gt;&lt;b&gt;FechaVencimiento&lt;/b&gt;: Fecha de vencimiento (DateTime?).&lt;/p&gt;&lt;p class=&quot;p2&quot;&gt;&lt;span style=&quot;white-space: pre;&quot;&gt;&amp;nbsp;&amp;nbsp;&amp;nbsp;&amp;nbsp;&lt;/span&gt;•&lt;span style=&quot;white-space: pre;&quot;&gt;&amp;nbsp;&amp;nbsp;&amp;nbsp;&amp;nbsp;&lt;/span&gt;&lt;b&gt;FechaFinVigenciaPoliza&lt;/b&gt;: Fecha de fin de vigencia de la póliza (DateTime?).&lt;/p&gt;" style="text;whiteSpace=wrap;html=1;strokeColor=default;spacing=0;verticalAlign=top;" parent="1" vertex="1">
          <mxGeometry x="-4380" y="1170" width="350" height="600" as="geometry" />
        </mxCell>
        <mxCell id="qdDWc3R9_-XlVuo6wOQ--14" style="edgeStyle=orthogonalEdgeStyle;rounded=0;orthogonalLoop=1;jettySize=auto;html=1;" parent="1" source="qdDWc3R9_-XlVuo6wOQ--13" target="qdDWc3R9_-XlVuo6wOQ--15" edge="1">
          <mxGeometry relative="1" as="geometry">
            <mxPoint x="-3820" y="1095" as="targetPoint" />
          </mxGeometry>
        </mxCell>
        <mxCell id="qdDWc3R9_-XlVuo6wOQ--13" value="&lt;p style=&quot;margin: 0px; font-variant-numeric: normal; font-variant-east-asian: normal; font-variant-alternates: normal; font-size-adjust: none; font-kerning: auto; font-optical-sizing: auto; font-feature-settings: normal; font-variation-settings: normal; font-variant-position: normal; font-variant-emoji: normal; font-stretch: normal; line-height: normal;&quot; class=&quot;p1&quot;&gt;&lt;font face=&quot;.AppleSystemUIFont&quot;&gt;&lt;span style=&quot;font-size: 15px;&quot;&gt;ValidateAtributes&lt;/span&gt;&lt;/font&gt;&lt;/p&gt;" style="html=1;overflow=block;blockSpacing=1;whiteSpace=wrap;shape=component;align=left;spacingLeft=36;fontSize=13;fontStyle=1;spacing=0;strokeColor=#36393d;strokeOpacity=100;fillOpacity=100;rounded=1;absoluteArcSize=1;arcSize=9;fillColor=#ffcccc;strokeWidth=1.5;lucidId=lD6s_1Mw1OkF;" parent="1" vertex="1">
          <mxGeometry x="-4110" y="1070" width="170" height="50" as="geometry" />
        </mxCell>
        <mxCell id="qdDWc3R9_-XlVuo6wOQ--16" style="edgeStyle=orthogonalEdgeStyle;rounded=0;orthogonalLoop=1;jettySize=auto;html=1;" parent="1" source="qdDWc3R9_-XlVuo6wOQ--15" edge="1">
          <mxGeometry relative="1" as="geometry">
            <mxPoint x="-3820" y="1190" as="targetPoint" />
          </mxGeometry>
        </mxCell>
        <mxCell id="qdDWc3R9_-XlVuo6wOQ--17" value="Error" style="edgeLabel;html=1;align=center;verticalAlign=middle;resizable=0;points=[];" parent="qdDWc3R9_-XlVuo6wOQ--16" vertex="1" connectable="0">
          <mxGeometry x="-0.1032" relative="1" as="geometry">
            <mxPoint as="offset" />
          </mxGeometry>
        </mxCell>
        <mxCell id="qdDWc3R9_-XlVuo6wOQ--19" style="edgeStyle=orthogonalEdgeStyle;rounded=0;orthogonalLoop=1;jettySize=auto;html=1;entryX=0.005;entryY=0.521;entryDx=0;entryDy=0;entryPerimeter=0;" parent="1" source="qdDWc3R9_-XlVuo6wOQ--15" target="qdDWc3R9_-XlVuo6wOQ--22" edge="1">
          <mxGeometry relative="1" as="geometry">
            <mxPoint x="-3660" y="1095" as="targetPoint" />
          </mxGeometry>
        </mxCell>
        <mxCell id="qdDWc3R9_-XlVuo6wOQ--20" value="Exito" style="edgeLabel;html=1;align=center;verticalAlign=middle;resizable=0;points=[];" parent="qdDWc3R9_-XlVuo6wOQ--19" vertex="1" connectable="0">
          <mxGeometry x="-0.1039" y="-3" relative="1" as="geometry">
            <mxPoint as="offset" />
          </mxGeometry>
        </mxCell>
        <mxCell id="qdDWc3R9_-XlVuo6wOQ--15" value="Resultado" style="rhombus;whiteSpace=wrap;html=1;fillColor=#cdeb8b;strokeColor=#36393d;" parent="1" vertex="1">
          <mxGeometry x="-3860" y="1055" width="80" height="80" as="geometry" />
        </mxCell>
        <mxCell id="qdDWc3R9_-XlVuo6wOQ--18" value="&lt;Fault&gt;&#xa;    &lt;Code&gt;&#xa;        &lt;Value&gt;Sender&lt;/Value&gt;&#xa;        &lt;Subcode&gt;&#xa;            &lt;Value&gt;001&lt;/Value&gt;&#xa;        &lt;/Subcode&gt;&#xa;    &lt;/Code&gt;&#xa;    &lt;Reason&gt;&#xa;        &lt;Text&gt;Error al registrar el fraccionamiento&lt;/Text&gt;&#xa;    &lt;/Reason&gt;&#xa;    &lt;Detail&gt;&#xa;        &lt;FraccionamientoServiceFault&gt;&#xa;            &lt;Mensaje&gt;El campo IdCliente es obligatorio.&lt;/Mensaje&gt;&#xa;            &lt;Pila&gt;&lt;/Pila&gt;&#xa;        &lt;/FraccionamientoServiceFault&gt;&#xa;    &lt;/Detail&gt;&#xa;&lt;/Fault&gt;" style="text;whiteSpace=wrap;strokeColor=default;" parent="1" vertex="1">
          <mxGeometry x="-3920" y="1200" width="350" height="270" as="geometry" />
        </mxCell>
        <mxCell id="qdDWc3R9_-XlVuo6wOQ--22" value="&lt;p style=&quot;margin: 0px; font-variant-numeric: normal; font-variant-east-asian: normal; font-variant-alternates: normal; font-size-adjust: none; font-kerning: auto; font-optical-sizing: auto; font-feature-settings: normal; font-variation-settings: normal; font-variant-position: normal; font-variant-emoji: normal; font-stretch: normal; line-height: normal;&quot; class=&quot;p1&quot;&gt;TranslateFraccionamientoToFraccionamientoBE&lt;/p&gt;" style="html=1;overflow=block;blockSpacing=1;whiteSpace=wrap;shape=component;align=left;spacingLeft=36;fontSize=13;fontStyle=1;spacing=0;strokeColor=#82b366;strokeOpacity=100;fillOpacity=100;rounded=1;absoluteArcSize=1;arcSize=9;fillColor=#d5e8d4;strokeWidth=1.5;lucidId=lD6s_1Mw1OkF;" parent="1" vertex="1">
          <mxGeometry x="-3560" y="1067.5" width="340" height="50" as="geometry" />
        </mxCell>
        <mxCell id="qdDWc3R9_-XlVuo6wOQ--23" value="{&lt;br&gt;&amp;nbsp; &amp;nbsp; FechaEfecto = DateTime.Now,&lt;br&gt;&amp;nbsp; &amp;nbsp; IdFrecuenciaPago = 2, // Frecuencia de pago (ejemplo: mensual).&lt;br&gt;&amp;nbsp; &amp;nbsp; NumeroCuotas = 12, // Ejemplo: 12 cuotas.&lt;br&gt;&amp;nbsp; &amp;nbsp; PorcentajeCuotaInicial = 15.0m, // Ejemplo: 15% cuota inicial.&lt;br&gt;&amp;nbsp; &amp;nbsp; PorcentajeInteres = 5.0m, // Ejemplo: 5% de interés.&lt;br&gt;&amp;nbsp; &amp;nbsp; IdAutorizacion = &quot;AUTH12345&quot;, // Identificador de autorización.&lt;br&gt;&amp;nbsp; &amp;nbsp; IdCliente = &quot;CUST987654321&quot;, // Identificador del cliente.&lt;br&gt;&amp;nbsp; &amp;nbsp; IdUsuario = 12345, // Identificador del usuario.&lt;br&gt;&amp;nbsp; &amp;nbsp; IdOficina = 10, // Identificador de la oficina.&lt;br&gt;&amp;nbsp; &amp;nbsp; IdTipoFraccionamiento = 1, // Tipo de fraccionamiento.&lt;br&gt;&amp;nbsp; &amp;nbsp; IdMoneda = 2, // Ejemplo: código de moneda (2 para dólares).&lt;br&gt;&amp;nbsp; &amp;nbsp; IdPagoComision = &quot;COM12345&quot;, // Identificador del pago de comisión.&lt;br&gt;&amp;nbsp; &amp;nbsp; FechaVencimiento = DateTime.Now.AddMonths(12), // Fecha de vencimiento en un año.&lt;br&gt;&amp;nbsp; &amp;nbsp; FechaFinVigenciaPoliza = DateTime.Now.AddYears(1), // Fecha de fin de vigencia en un año.&lt;br&gt;&amp;nbsp; &amp;nbsp; IdAplicacion = &quot;APP12345&quot;, // Identificador de la aplicación.&lt;br&gt;&amp;nbsp; &amp;nbsp; ListaRecibos = new List&lt;br&gt;&amp;nbsp; &amp;nbsp; {&lt;br&gt;&amp;nbsp; &amp;nbsp; &amp;nbsp; &amp;nbsp; new DataContracts.Recibo&lt;br&gt;&amp;nbsp; &amp;nbsp; &amp;nbsp; &amp;nbsp; {&lt;br&gt;&amp;nbsp; &amp;nbsp; &amp;nbsp; &amp;nbsp; &amp;nbsp; &amp;nbsp; IdRamo = 5, // Ejemplo: ramo del seguro.&lt;br&gt;&amp;nbsp; &amp;nbsp; &amp;nbsp; &amp;nbsp; &amp;nbsp; &amp;nbsp; IdProducto = 101, // Ejemplo: identificador del producto.&lt;br&gt;&amp;nbsp; &amp;nbsp; &amp;nbsp; &amp;nbsp; &amp;nbsp; &amp;nbsp; IdRecibo = 1001 // Ejemplo: identificador del recibo.&lt;br&gt;&amp;nbsp; &amp;nbsp; &amp;nbsp; &amp;nbsp; },&lt;br&gt;&amp;nbsp; &amp;nbsp; &amp;nbsp; &amp;nbsp; new DataContracts.Recibo&lt;br&gt;&amp;nbsp; &amp;nbsp; &amp;nbsp; &amp;nbsp; {&lt;br&gt;&amp;nbsp; &amp;nbsp; &amp;nbsp; &amp;nbsp; &amp;nbsp; &amp;nbsp; IdRamo = 6,&lt;br&gt;&amp;nbsp; &amp;nbsp; &amp;nbsp; &amp;nbsp; &amp;nbsp; &amp;nbsp; IdProducto = 102,&lt;br&gt;&amp;nbsp; &amp;nbsp; &amp;nbsp; &amp;nbsp; &amp;nbsp; &amp;nbsp; IdRecibo = 1002&lt;br&gt;&amp;nbsp; &amp;nbsp; &amp;nbsp; &amp;nbsp; }&lt;br&gt;&amp;nbsp; &amp;nbsp; }&lt;br&gt;};" style="text;whiteSpace=wrap;spacing=4;verticalAlign=middle;strokeColor=default;html=1;labelBorderColor=none;" parent="1" vertex="1">
          <mxGeometry x="-3640" y="585" width="530" height="470" as="geometry" />
        </mxCell>
        <mxCell id="qdDWc3R9_-XlVuo6wOQ--24" value="Parametro" style="text;html=1;align=center;verticalAlign=middle;resizable=0;points=[];autosize=1;strokeColor=none;fillColor=none;" parent="1" vertex="1">
          <mxGeometry x="-3640" y="538" width="80" height="30" as="geometry" />
        </mxCell>
        <mxCell id="AGSc0J4f7E3v8w63l6Om-1" style="edgeStyle=orthogonalEdgeStyle;rounded=0;orthogonalLoop=1;jettySize=auto;html=1;" edge="1" parent="1" source="qdDWc3R9_-XlVuo6wOQ--25">
          <mxGeometry relative="1" as="geometry">
            <mxPoint x="-2560" y="1090" as="targetPoint" />
          </mxGeometry>
        </mxCell>
        <mxCell id="qdDWc3R9_-XlVuo6wOQ--25" value="&lt;p style=&quot;margin: 0px; font-variant-numeric: normal; font-variant-east-asian: normal; font-variant-alternates: normal; font-size-adjust: none; font-kerning: auto; font-optical-sizing: auto; font-feature-settings: normal; font-variation-settings: normal; font-variant-position: normal; font-variant-emoji: normal; font-stretch: normal; line-height: normal;&quot; class=&quot;p1&quot;&gt;FraccionamientoBL.RegistrarCuponeraIndividual&lt;/p&gt;" style="html=1;overflow=block;blockSpacing=1;whiteSpace=wrap;shape=component;align=left;spacingLeft=36;fontSize=13;fontStyle=1;spacing=0;strokeColor=#82b366;strokeOpacity=100;fillOpacity=100;rounded=1;absoluteArcSize=1;arcSize=9;fillColor=#d5e8d4;strokeWidth=1.5;lucidId=lD6s_1Mw1OkF;" parent="1" vertex="1">
          <mxGeometry x="-3050" y="1065" width="350" height="50" as="geometry" />
        </mxCell>
        <mxCell id="qdDWc3R9_-XlVuo6wOQ--27" style="edgeStyle=orthogonalEdgeStyle;rounded=0;orthogonalLoop=1;jettySize=auto;html=1;entryX=0.037;entryY=0.535;entryDx=0;entryDy=0;entryPerimeter=0;" parent="1" source="qdDWc3R9_-XlVuo6wOQ--22" target="qdDWc3R9_-XlVuo6wOQ--25" edge="1">
          <mxGeometry relative="1" as="geometry" />
        </mxCell>
        <mxCell id="AGSc0J4f7E3v8w63l6Om-11" style="edgeStyle=orthogonalEdgeStyle;rounded=0;orthogonalLoop=1;jettySize=auto;html=1;entryX=0.5;entryY=1;entryDx=0;entryDy=0;" edge="1" parent="1" source="AGSc0J4f7E3v8w63l6Om-2" target="AGSc0J4f7E3v8w63l6Om-10">
          <mxGeometry relative="1" as="geometry" />
        </mxCell>
        <mxCell id="AGSc0J4f7E3v8w63l6Om-18" value="Si" style="edgeLabel;html=1;align=center;verticalAlign=middle;resizable=0;points=[];" vertex="1" connectable="0" parent="AGSc0J4f7E3v8w63l6Om-11">
          <mxGeometry x="-0.0364" y="4" relative="1" as="geometry">
            <mxPoint as="offset" />
          </mxGeometry>
        </mxCell>
        <mxCell id="AGSc0J4f7E3v8w63l6Om-17" style="edgeStyle=orthogonalEdgeStyle;rounded=0;orthogonalLoop=1;jettySize=auto;html=1;" edge="1" parent="1" source="AGSc0J4f7E3v8w63l6Om-2">
          <mxGeometry relative="1" as="geometry">
            <mxPoint x="-2270" y="1090" as="targetPoint" />
          </mxGeometry>
        </mxCell>
        <mxCell id="AGSc0J4f7E3v8w63l6Om-2" value="Null?" style="rhombus;whiteSpace=wrap;html=1;" vertex="1" parent="1">
          <mxGeometry x="-2560" y="1050" width="80" height="80" as="geometry" />
        </mxCell>
        <mxCell id="AGSc0J4f7E3v8w63l6Om-6" value="fraccionamientoBE.idAutorizacion" style="text;whiteSpace=wrap;html=1;" vertex="1" parent="1">
          <mxGeometry x="-2610" y="1150" width="210" height="40" as="geometry" />
        </mxCell>
        <mxCell id="AGSc0J4f7E3v8w63l6Om-8" value="{&#xa;&lt;span class=&quot;Apple-converted-space&quot;&gt;&amp;nbsp; &amp;nbsp; &lt;/span&gt;IdCliente = &lt;span class=&quot;s1&quot;&gt;&quot;123456789&quot;&lt;/span&gt;,&#xa;&lt;span class=&quot;Apple-converted-space&quot;&gt;&amp;nbsp; &amp;nbsp; &lt;/span&gt;IdUsuario = &lt;span class=&quot;s2&quot;&gt;1001&lt;/span&gt;,&#xa;&lt;p class=&quot;p2&quot;&gt;&lt;span class=&quot;s3&quot;&gt;&lt;span class=&quot;Apple-converted-space&quot;&gt;&amp;nbsp; &amp;nbsp; &lt;/span&gt;IdMoneda = &lt;/span&gt;&lt;span class=&quot;s2&quot;&gt;1&lt;/span&gt;&lt;span class=&quot;s3&quot;&gt;, &lt;/span&gt;// Moneda: 1 (Soles), 2 (Dólares)&lt;/p&gt;&#xa;&lt;span class=&quot;Apple-converted-space&quot;&gt;&amp;nbsp; &amp;nbsp; &lt;/span&gt;NumeroCuotas = &lt;span class=&quot;s2&quot;&gt;12&lt;/span&gt;,&#xa;&lt;span class=&quot;Apple-converted-space&quot;&gt;&amp;nbsp; &amp;nbsp; &lt;/span&gt;PorcentajeCuotaInicial = &lt;span class=&quot;s2&quot;&gt;20.0&lt;/span&gt;, &lt;span class=&quot;s4&quot;&gt;// 20% de cuota inicial&lt;/span&gt;&#xa;&lt;span class=&quot;Apple-converted-space&quot;&gt;&amp;nbsp; &amp;nbsp; &lt;/span&gt;PorcentajeInteres = &lt;span class=&quot;s2&quot;&gt;5.0&lt;/span&gt;, &lt;span class=&quot;s4&quot;&gt;// 5% de interés&lt;/span&gt;&#xa;&lt;span class=&quot;Apple-converted-space&quot;&gt;&amp;nbsp; &amp;nbsp; &lt;/span&gt;IdTipoFraccionamiento = &lt;span class=&quot;s2&quot;&gt;1&lt;/span&gt;, &lt;span class=&quot;s4&quot;&gt;// Tipo de fraccionamiento&lt;/span&gt;&#xa;&lt;span class=&quot;Apple-converted-space&quot;&gt;&amp;nbsp; &amp;nbsp; &lt;/span&gt;FechaEfecto = DateTime.Now,&#xa;&lt;p class=&quot;p2&quot;&gt;&lt;span class=&quot;s3&quot;&gt;&lt;span class=&quot;Apple-converted-space&quot;&gt;&amp;nbsp; &amp;nbsp; &lt;/span&gt;IdPagoComision = &lt;/span&gt;&lt;span class=&quot;s1&quot;&gt;&quot;1&quot;&lt;/span&gt;&lt;span class=&quot;s3&quot;&gt;, &lt;/span&gt;// Ejemplo: pago de comisión&lt;/p&gt;&#xa;&lt;span class=&quot;Apple-converted-space&quot;&gt;&amp;nbsp; &amp;nbsp; &lt;/span&gt;ListaReciboBE = &lt;span class=&quot;s5&quot;&gt;new&lt;/span&gt; List&amp;lt;ReciboBE&amp;gt;&#xa;&lt;span class=&quot;Apple-converted-space&quot;&gt;&amp;nbsp; &amp;nbsp; &lt;/span&gt;{&#xa;&lt;span class=&quot;Apple-converted-space&quot;&gt;&amp;nbsp; &amp;nbsp; &amp;nbsp; &amp;nbsp; &lt;/span&gt;&lt;span class=&quot;s5&quot;&gt;new&lt;/span&gt; ReciboBE&#xa;&lt;span class=&quot;Apple-converted-space&quot;&gt;&amp;nbsp; &amp;nbsp; &amp;nbsp; &amp;nbsp; &lt;/span&gt;{&#xa;&lt;span class=&quot;Apple-converted-space&quot;&gt;&amp;nbsp; &amp;nbsp; &amp;nbsp; &amp;nbsp; &amp;nbsp; &amp;nbsp; &lt;/span&gt;IdRecibo = &lt;span class=&quot;s2&quot;&gt;101&lt;/span&gt;,&#xa;&lt;span class=&quot;Apple-converted-space&quot;&gt;&amp;nbsp; &amp;nbsp; &amp;nbsp; &amp;nbsp; &amp;nbsp; &amp;nbsp; &lt;/span&gt;IdProducto = &lt;span class=&quot;s2&quot;&gt;10&lt;/span&gt;,&#xa;&lt;span class=&quot;Apple-converted-space&quot;&gt;&amp;nbsp; &amp;nbsp; &amp;nbsp; &amp;nbsp; &amp;nbsp; &amp;nbsp; &lt;/span&gt;IdRamo = &lt;span class=&quot;s2&quot;&gt;5&lt;/span&gt;,&#xa;&lt;span class=&quot;Apple-converted-space&quot;&gt;&amp;nbsp; &amp;nbsp; &amp;nbsp; &amp;nbsp; &amp;nbsp; &amp;nbsp; &lt;/span&gt;IdCliente = &lt;span class=&quot;s1&quot;&gt;&quot;123456789&quot;&lt;/span&gt;,&#xa;&lt;span class=&quot;Apple-converted-space&quot;&gt;&amp;nbsp; &amp;nbsp; &amp;nbsp; &amp;nbsp; &amp;nbsp; &amp;nbsp; &lt;/span&gt;IdMoneda = &lt;span class=&quot;s2&quot;&gt;1&lt;/span&gt;,&#xa;&lt;p class=&quot;p2&quot;&gt;&lt;span class=&quot;s3&quot;&gt;&lt;span class=&quot;Apple-converted-space&quot;&gt;&amp;nbsp; &amp;nbsp; &amp;nbsp; &amp;nbsp; &amp;nbsp; &amp;nbsp; &lt;/span&gt;IdEstado = &lt;/span&gt;&lt;span class=&quot;s2&quot;&gt;1&lt;/span&gt;&lt;span class=&quot;s3&quot;&gt;, &lt;/span&gt;// Estado: pendiente de cobro&lt;/p&gt;&#xa;&lt;span class=&quot;Apple-converted-space&quot;&gt;&amp;nbsp; &amp;nbsp; &amp;nbsp; &amp;nbsp; &amp;nbsp; &amp;nbsp; &lt;/span&gt;FechaAnulacion = &lt;span class=&quot;s6&quot;&gt;null&lt;/span&gt;,&#xa;&lt;span class=&quot;Apple-converted-space&quot;&gt;&amp;nbsp; &amp;nbsp; &amp;nbsp; &amp;nbsp; &amp;nbsp; &amp;nbsp; &lt;/span&gt;NumeroCuponera = &lt;span class=&quot;s2&quot;&gt;0&lt;/span&gt;,&#xa;&lt;span class=&quot;Apple-converted-space&quot;&gt;&amp;nbsp; &amp;nbsp; &amp;nbsp; &amp;nbsp; &amp;nbsp; &amp;nbsp; &lt;/span&gt;NumeroConsecutivoCupon = &lt;span class=&quot;s2&quot;&gt;0&lt;/span&gt;,&#xa;&lt;span class=&quot;Apple-converted-space&quot;&gt;&amp;nbsp; &amp;nbsp; &amp;nbsp; &amp;nbsp; &amp;nbsp; &amp;nbsp; &lt;/span&gt;NumeroCuponeraIncluidoRecibo = &lt;span class=&quot;s2&quot;&gt;0&lt;/span&gt;,&#xa;&lt;span class=&quot;Apple-converted-space&quot;&gt;&amp;nbsp; &amp;nbsp; &amp;nbsp; &amp;nbsp; &amp;nbsp; &amp;nbsp; &lt;/span&gt;ImportePrima = &lt;span class=&quot;s2&quot;&gt;1000.0&lt;/span&gt;, &lt;span class=&quot;s4&quot;&gt;// Monto del recibo&lt;/span&gt;&#xa;&lt;span class=&quot;Apple-converted-space&quot;&gt;&amp;nbsp; &amp;nbsp; &amp;nbsp; &amp;nbsp; &amp;nbsp; &amp;nbsp; &lt;/span&gt;IdIntermediario = &lt;span class=&quot;s2&quot;&gt;2001&lt;/span&gt;&#xa;&lt;span class=&quot;Apple-converted-space&quot;&gt;&amp;nbsp; &amp;nbsp; &amp;nbsp; &amp;nbsp; &lt;/span&gt;}&#xa;&lt;span class=&quot;Apple-converted-space&quot;&gt;&amp;nbsp; &amp;nbsp; &lt;/span&gt;},&#xa;&lt;span class=&quot;Apple-converted-space&quot;&gt;&amp;nbsp; &amp;nbsp; &lt;/span&gt;idAutorizacion = &lt;span class=&quot;s1&quot;&gt;&quot;AUTH123&quot;&lt;/span&gt;,&#xa;&lt;span class=&quot;Apple-converted-space&quot;&gt;&amp;nbsp; &amp;nbsp; &lt;/span&gt;IdOficina = &lt;span class=&quot;s2&quot;&gt;2&lt;/span&gt;,&#xa;&lt;span class=&quot;Apple-converted-space&quot;&gt;&amp;nbsp; &amp;nbsp; &lt;/span&gt;FechaVencimiento = DateTime.Now.AddMonths(&lt;span class=&quot;s2&quot;&gt;12&lt;/span&gt;), &lt;span class=&quot;s4&quot;&gt;// Vencimiento en un año&lt;/span&gt;&#xa;&lt;span class=&quot;Apple-converted-space&quot;&gt;&amp;nbsp; &amp;nbsp; &lt;/span&gt;FechaFinVigenciaPoliza = DateTime.Now.AddYears(&lt;span class=&quot;s2&quot;&gt;1&lt;/span&gt;), &lt;span class=&quot;s4&quot;&gt;// Vigencia en un año&lt;/span&gt;&#xa;&lt;p class=&quot;p2&quot;&gt;&lt;span class=&quot;s3&quot;&gt;&lt;span class=&quot;Apple-converted-space&quot;&gt;&amp;nbsp; &amp;nbsp; &lt;/span&gt;IdAplicacion = &lt;/span&gt;&lt;span class=&quot;s2&quot;&gt;1&lt;/span&gt;&lt;span class=&quot;s3&quot;&gt;, &lt;/span&gt;// ID de la aplicación&lt;/p&gt;&#xa;};" style="text;whiteSpace=wrap;html=1;strokeColor=default;" vertex="1" parent="1">
          <mxGeometry x="-3110" y="1160" width="460" height="670" as="geometry" />
        </mxCell>
        <mxCell id="AGSc0J4f7E3v8w63l6Om-9" value="Parametro" style="text;html=1;align=center;verticalAlign=middle;resizable=0;points=[];autosize=1;strokeColor=default;fillColor=none;" vertex="1" parent="1">
          <mxGeometry x="-3110" y="1122.5" width="80" height="30" as="geometry" />
        </mxCell>
        <mxCell id="AGSc0J4f7E3v8w63l6Om-10" value="&lt;p style=&quot;margin: 0px; font-variant-numeric: normal; font-variant-east-asian: normal; font-variant-alternates: normal; font-size-adjust: none; font-kerning: auto; font-optical-sizing: auto; font-feature-settings: normal; font-variation-settings: normal; font-variant-position: normal; font-variant-emoji: normal; font-stretch: normal; line-height: normal;&quot; class=&quot;p1&quot;&gt;ValidarCodigoAutorizacion&lt;/p&gt;" style="html=1;overflow=block;blockSpacing=1;whiteSpace=wrap;shape=component;align=left;spacingLeft=36;fontSize=13;fontStyle=1;spacing=0;strokeColor=#82b366;strokeOpacity=100;fillOpacity=100;rounded=1;absoluteArcSize=1;arcSize=9;fillColor=#d5e8d4;strokeWidth=1.5;lucidId=lD6s_1Mw1OkF;" vertex="1" parent="1">
          <mxGeometry x="-2627.5" y="890" width="215" height="50" as="geometry" />
        </mxCell>
        <mxCell id="AGSc0J4f7E3v8w63l6Om-12" value="&lt;b&gt;Parámetros de Entrada&lt;/b&gt;&lt;p class=&quot;p3&quot;&gt;El método toma un único parámetro de entrada:&lt;/p&gt;&lt;p class=&quot;p4&quot;&gt;&lt;span style=&quot;white-space: pre;&quot;&gt;&amp;nbsp;&amp;nbsp;&amp;nbsp;&amp;nbsp;&lt;/span&gt;1.&lt;span style=&quot;white-space: pre;&quot;&gt;&amp;nbsp;&amp;nbsp;&amp;nbsp;&amp;nbsp;&lt;/span&gt;&lt;span class=&quot;s1&quot;&gt;codigoAutorizacion&lt;/span&gt; (string): Código de autorización que se desea validar.&lt;/p&gt;&lt;b&gt;Parámetros de Salida&lt;/b&gt;&lt;p class=&quot;p4&quot;&gt;&lt;span style=&quot;white-space: pre;&quot;&gt;&amp;nbsp;&amp;nbsp;&amp;nbsp;&amp;nbsp;&lt;/span&gt;1.&lt;span style=&quot;white-space: pre;&quot;&gt;&amp;nbsp;&amp;nbsp;&amp;nbsp;&amp;nbsp;&lt;/span&gt;&lt;span class=&quot;s1&quot;&gt;result&lt;/span&gt; (bool): Resultado de la validación. Devuelve:&lt;/p&gt;&lt;p class=&quot;p5&quot;&gt;&lt;span style=&quot;white-space: pre;&quot;&gt;&amp;nbsp;&amp;nbsp;&amp;nbsp;&amp;nbsp;&lt;/span&gt;•&lt;span style=&quot;white-space: pre;&quot;&gt;&amp;nbsp;&amp;nbsp;&amp;nbsp;&amp;nbsp;&lt;/span&gt;&lt;span class=&quot;s1&quot;&gt;true&lt;/span&gt;: Si el código de autorización es válido.&lt;/p&gt;&lt;p class=&quot;p5&quot;&gt;&lt;span style=&quot;white-space: pre;&quot;&gt;&amp;nbsp;&amp;nbsp;&amp;nbsp;&amp;nbsp;&lt;/span&gt;•&lt;span style=&quot;white-space: pre;&quot;&gt;&amp;nbsp;&amp;nbsp;&amp;nbsp;&amp;nbsp;&lt;/span&gt;&lt;span class=&quot;s1&quot;&gt;false&lt;/span&gt;: Si el código no es válido.&lt;/p&gt;" style="text;whiteSpace=wrap;html=1;strokeColor=default;" vertex="1" parent="1">
          <mxGeometry x="-2627.5" y="530" width="417.5" height="210" as="geometry" />
        </mxCell>
        <mxCell id="AGSc0J4f7E3v8w63l6Om-13" value="" style="sketch=0;outlineConnect=0;fontColor=#232F3E;gradientColor=none;fillColor=#C925D1;strokeColor=none;dashed=0;verticalLabelPosition=bottom;verticalAlign=top;align=center;html=1;fontSize=12;fontStyle=0;aspect=fixed;pointerEvents=1;shape=mxgraph.aws4.rds_oracle_instance;" vertex="1" parent="1">
          <mxGeometry x="-2610" y="770" width="78" height="78" as="geometry" />
        </mxCell>
        <mxCell id="AGSc0J4f7E3v8w63l6Om-14" value="INSUDB.VAL_AUTHORIZ" style="text;whiteSpace=wrap;html=1;" vertex="1" parent="1">
          <mxGeometry x="-2640" y="850" width="170" height="40" as="geometry" />
        </mxCell>
        <mxCell id="AGSc0J4f7E3v8w63l6Om-16" value="Flujo del Código&#xa;&#xa;    1.    Se inicializa la conexión a la base de datos (db.OpenConnection()).&#xa;    2.    Se crean los parámetros necesarios:&#xa;    •    SAUTHORIZ: Se pasa el código de autorización.&#xa;    •    SVALID: Se configura como parámetro de salida.&#xa;    3.    Se ejecuta el SP INSUDB.VAL_AUTHORIZ con los parámetros definidos.&#xa;    4.    Se verifica el valor de SVALID:&#xa;    •    Si es &quot;1&quot;, se retorna true.&#xa;    •    Caso contrario, se retorna false.&#xa;    5.    Se cierra la conexión a la base de datos." style="text;whiteSpace=wrap;verticalAlign=middle;fontSize=12;strokeColor=default;" vertex="1" parent="1">
          <mxGeometry x="-2400" y="750" width="310" height="210" as="geometry" />
        </mxCell>
        <mxCell id="AGSc0J4f7E3v8w63l6Om-20" value="bool autorizacionValido = true" style="text;whiteSpace=wrap;html=1;" vertex="1" parent="1">
          <mxGeometry x="-2440" y="1055" width="190" height="40" as="geometry" />
        </mxCell>
        <mxCell id="AGSc0J4f7E3v8w63l6Om-21" value="" style="rounded=0;whiteSpace=wrap;html=1;" vertex="1" parent="1">
          <mxGeometry x="-2270" y="1045" width="210" height="90" as="geometry" />
        </mxCell>
        <mxCell id="AGSc0J4f7E3v8w63l6Om-22" value="Condicionales en el flujo de RegistrarCuponeraIndividual&#xa;&#xa;Dentro del bucle que procesa los recibos asociados a un fraccionamiento individual, se evalúan las siguientes condiciones para garantizar la validez de los datos y la consistencia con las reglas de negocio:&#xa;    1.    Validación de existencia del recibo&#xa;&#xa;    •    Si el recibo no existe en la base de datos:&#xa;    •    Mensaje de error: &quot;El código de recibo [IdRecibo] no existe&quot;&#xa;    •    Acción: Lanzar una excepción (BusinessException).&#xa;&#xa;    2.    Validación del cliente asociado al recibo&#xa;&#xa;    •    Si el cliente del recibo no coincide con el cliente del fraccionamiento:&#xa;    •    Mensaje de error: &quot;El cliente del recibo [IdRecibo] debe ser igual al cliente del fraccionamiento&quot;&#xa;    •    Acción: Lanzar una excepción.&#xa;&#xa;    3.    Validación de la moneda del recibo&#xa;&#xa;    •    Si la moneda del recibo no coincide con la especificada en el fraccionamiento:&#xa;    •    Mensaje de error: &quot;La moneda del recibo [IdRecibo] debe ser igual a la especificada en el fraccionamiento&quot;&#xa;    •    Acción: Lanzar una excepción.&#xa;&#xa;    4.    Validación del estado del recibo&#xa;&#xa;    •    Si el recibo no está pendiente de cobro (IdEstado != 1):&#xa;    •    Mensaje de error: &quot;El recibo [IdRecibo] no está pendiente de cobro&quot;&#xa;    •    Acción: Lanzar una excepción.&#xa;&#xa;    5.    Validación de anulaciones del recibo&#xa;&#xa;    •    Si el recibo tiene una fecha de anulación (FechaAnulacion != null):&#xa;    •    Mensaje de error: &quot;El recibo [IdRecibo] posee fecha de anulación&quot;&#xa;    •    Acción: Lanzar una excepción.&#xa;&#xa;    6.    Validación del estado del registro del recibo&#xa;&#xa;    •    Si el recibo está en un estado de captura incompleta o inválido (IdEstadoRegistro == &quot;3&quot; o &quot;2&quot;):&#xa;    •    Mensaje de error: &quot;El recibo [IdRecibo] se encuentra en captura incompleta o inválido&quot;&#xa;    •    Acción: Lanzar una excepción.&#xa;&#xa;    7.    Validación de inclusión en una cuponera&#xa;&#xa;    •    Si el recibo ya está incluido en una cuponera (NumeroCuponera &gt; 0 &amp;&amp; NumeroConsecutivoCupon &gt;= 0):&#xa;    •    Mensaje de error: &quot;No se pueden fraccionar el recibo [IdRecibo], se encuentra incluido en una cuponera&quot;&#xa;    •    Acción: Lanzar una excepción.&#xa;&#xa;    8.    Validación de recibo que dio origen a una cuponera&#xa;&#xa;    •    Si el recibo fue el origen de una cuponera (NumeroCuponeraIncluidoRecibo &gt; 0):&#xa;    •    Mensaje de error: &quot;El recibo [IdRecibo] dio origen a la cuponera&quot;&#xa;    •    Acción: Lanzar una excepción.&#xa;&#xa;    9.    Validación del tipo de movimiento del recibo&#xa;&#xa;    •    Si el recibo tiene un tipo de movimiento restringido:&#xa;    •    Mensaje de error:&#xa;    •    &quot;No se puede fraccionar el recibo [IdRecibo] ya facturado&quot; (Tipo de movimiento: 1 o 2).&#xa;    •    &quot;No se puede fraccionar el recibo [IdRecibo] en convenio de pago&quot; (Tipo de movimiento: 3).&#xa;    •    &quot;No se puede fraccionar el recibo [IdRecibo] con nota de abono&quot; (Tipo de movimiento: 4).&#xa;    •    Acción: Lanzar una excepción.&#xa;&#xa;    10.    Validación de inclusión en otro fraccionamiento&#xa;&#xa;    •    Si el recibo ya está incluido en otro fraccionamiento (NumeroFraccionamiento != null):&#xa;    •    Mensaje de error: &quot;El recibo [IdRecibo] está incluido en otro fraccionamiento&quot;&#xa;    •    Acción: Lanzar una excepción.&#xa;&#xa;    11.    Acumulación de valores&#xa;&#xa;    •    Durante la iteración, se calculan y acumulan:&#xa;    •    totalImportePrima: Suma de los valores de prima del recibo (ImportePrima).&#xa;    •    idIntermediario: Intermediario asociado al recibo." style="text;whiteSpace=wrap;strokeColor=default;" vertex="1" parent="1">
          <mxGeometry x="-2270" y="1152.5" width="560" height="1127.5" as="geometry" />
        </mxCell>
        <mxCell id="AGSc0J4f7E3v8w63l6Om-23" value="fraccionamientoBE.ListaReciboBE" style="text;whiteSpace=wrap;html=1;" vertex="1" parent="1">
          <mxGeometry x="-2260" y="1075" width="160" height="35" as="geometry" />
        </mxCell>
        <mxCell id="AGSc0J4f7E3v8w63l6Om-26" value="Bucle" style="rhombus;whiteSpace=wrap;html=1;" vertex="1" parent="1">
          <mxGeometry x="-2030" y="1040" width="80" height="85" as="geometry" />
        </mxCell>
        <mxCell id="AGSc0J4f7E3v8w63l6Om-33" style="edgeStyle=orthogonalEdgeStyle;rounded=0;orthogonalLoop=1;jettySize=auto;html=1;entryX=0.5;entryY=1;entryDx=0;entryDy=0;" edge="1" parent="1" source="AGSc0J4f7E3v8w63l6Om-27" target="AGSc0J4f7E3v8w63l6Om-30">
          <mxGeometry relative="1" as="geometry" />
        </mxCell>
        <mxCell id="AGSc0J4f7E3v8w63l6Om-27" value="" style="rounded=1;whiteSpace=wrap;html=1;" vertex="1" parent="1">
          <mxGeometry x="-1520" y="1395" width="600" height="75" as="geometry" />
        </mxCell>
        <mxCell id="AGSc0J4f7E3v8w63l6Om-28" value="totalCuotaInicial = Math.Round((fraccionamientoBE.PorcentajeCuotaInicial / 100) * totalImportePrima, 2);" style="text;whiteSpace=wrap;html=1;" vertex="1" parent="1">
          <mxGeometry x="-1500" y="1420" width="560" height="50" as="geometry" />
        </mxCell>
        <mxCell id="AGSc0J4f7E3v8w63l6Om-29" style="edgeStyle=orthogonalEdgeStyle;rounded=0;orthogonalLoop=1;jettySize=auto;html=1;entryX=0.5;entryY=1;entryDx=0;entryDy=0;" edge="1" parent="1" source="AGSc0J4f7E3v8w63l6Om-22" target="AGSc0J4f7E3v8w63l6Om-28">
          <mxGeometry relative="1" as="geometry" />
        </mxCell>
        <mxCell id="AGSc0J4f7E3v8w63l6Om-37" style="edgeStyle=orthogonalEdgeStyle;rounded=0;orthogonalLoop=1;jettySize=auto;html=1;" edge="1" parent="1" source="AGSc0J4f7E3v8w63l6Om-30">
          <mxGeometry relative="1" as="geometry">
            <mxPoint x="-870" y="1110" as="targetPoint" />
          </mxGeometry>
        </mxCell>
        <mxCell id="AGSc0J4f7E3v8w63l6Om-30" value="&lt;p class=&quot;p1&quot; style=&quot;margin: 0px; font-variant-numeric: normal; font-variant-east-asian: normal; font-variant-alternates: normal; font-size-adjust: none; font-kerning: auto; font-optical-sizing: auto; font-feature-settings: normal; font-variation-settings: normal; font-variant-position: normal; font-variant-emoji: normal; font-stretch: normal; line-height: normal;&quot;&gt;RegistrarIndividual&lt;/p&gt;" style="html=1;overflow=block;blockSpacing=1;whiteSpace=wrap;shape=component;align=center;spacingLeft=36;fontSize=13;fontStyle=1;spacing=0;strokeColor=#82b366;strokeOpacity=100;fillOpacity=100;rounded=1;absoluteArcSize=1;arcSize=9;fillColor=#d5e8d4;strokeWidth=1.5;lucidId=lD6s_1Mw1OkF;" vertex="1" parent="1">
          <mxGeometry x="-1327.5" y="1085" width="215" height="50" as="geometry" />
        </mxCell>
        <mxCell id="AGSc0J4f7E3v8w63l6Om-31" value="Parámetros de Entrada&#xa;&#xa;    1.    FraccionamientoBE ObjFraccionamiento:&#xa;&#xa;    •    Contiene los datos generales del fraccionamiento, como:&#xa;    •    FechaEfecto: Fecha de efecto del fraccionamiento.&#xa;    •    IdOficina: Identificador de la oficina.&#xa;    •    IdCliente: Código del cliente.&#xa;    •    IdMoneda: Identificador de la moneda.&#xa;    •    IdUsuario: Código del usuario que realiza el registro.&#xa;    •    PorcentajeInteres: Porcentaje de interés aplicado.&#xa;    •    NumeroCuotas: Número total de cuotas.&#xa;    •    idAutorizacion: Código de autorización.&#xa;&#xa;    2.    RegistrarIndividualBE objRegistrarIndividual:&#xa;&#xa;    •    Contiene información específica para registrar la operación, como:&#xa;    •    CodigoTransaccion: Código de la transacción.&#xa;    •    NroCuponera: Número de la cuponera (puede ser modificado durante la          operación).&#xa;    •    TipoRegistro: Tipo de registro del recibo.&#xa;    •    Inclusion: Indicador de inclusión.&#xa;    •    Rehabilitacion: Indicador de rehabilitación.&#xa;    •    TotalCuotaInicial: Monto total de la cuota inicial." style="text;whiteSpace=wrap;strokeColor=default;" vertex="1" parent="1">
          <mxGeometry x="-1487.5" y="470" width="430" height="355" as="geometry" />
        </mxCell>
        <mxCell id="AGSc0J4f7E3v8w63l6Om-32" value="" style="sketch=0;outlineConnect=0;fontColor=#232F3E;gradientColor=none;fillColor=#C925D1;strokeColor=none;dashed=0;verticalLabelPosition=bottom;verticalAlign=top;align=center;html=1;fontSize=12;fontStyle=0;aspect=fixed;pointerEvents=1;shape=mxgraph.aws4.rds_oracle_instance;" vertex="1" parent="1">
          <mxGeometry x="-1270" y="960" width="78" height="78" as="geometry" />
        </mxCell>
        <mxCell id="AGSc0J4f7E3v8w63l6Om-34" value="Parámetro de Salida&#xa;&#xa;    1.    NroCuponera (int):&#xa;&#xa;    •    Este valor es actualizado dentro del procedimiento                         almacenado. Representa el número de la cuponera generada          tras el registro." style="text;whiteSpace=wrap;align=left;strokeColor=default;" vertex="1" parent="1">
          <mxGeometry x="-1487.5" y="825" width="370" height="120" as="geometry" />
        </mxCell>
        <mxCell id="AGSc0J4f7E3v8w63l6Om-35" value="INSUDB.USP_INSERTAR_CUPONERAIND" style="text;whiteSpace=wrap;html=1;" vertex="1" parent="1">
          <mxGeometry x="-1327.5" y="1045" width="270" height="40" as="geometry" />
        </mxCell>
        <mxCell id="AGSc0J4f7E3v8w63l6Om-36" value="{&#xa;  &quot;idFrecuenciaPago&quot;: 2,&#xa;  &quot;idMoneda&quot;: 1,&#xa;  &quot;numeroCuotas&quot;: 12,&#xa;  &quot;porcentajeCuotaInicial&quot;: 20.0,&#xa;  &quot;porcentajeInteres&quot;: 5.5,&#xa;  &quot;idTipoFraccionamiento&quot;: 1,&#xa;  &quot;tipoCalculo&quot;: &quot;PorRecibo&quot;,&#xa;  &quot;fechaEfecto&quot;: &quot;2024-11-21&quot;,&#xa;  &quot;listaReciboBE&quot;: [&#xa;    {&#xa;      &quot;idRamo&quot;: 101,&#xa;      &quot;idProducto&quot;: 1001,&#xa;      &quot;idRecibo&quot;: 5001,&#xa;      &quot;fechaEfecto&quot;: &quot;2024-12-01&quot;,&#xa;      &quot;fechaVencimiento&quot;: &quot;2025-12-01&quot;,&#xa;      &quot;importePrima&quot;: 1000.0,&#xa;      &quot;montoComision&quot;: 50.0,&#xa;      &quot;idCliente&quot;: &quot;C12345&quot;,&#xa;      &quot;idIntermediario&quot;: &quot;I67890&quot;&#xa;    },&#xa;    {&#xa;      &quot;idRamo&quot;: 102,&#xa;      &quot;idProducto&quot;: 1002,&#xa;      &quot;idRecibo&quot;: 5002,&#xa;      &quot;fechaEfecto&quot;: &quot;2024-12-15&quot;,&#xa;      &quot;fechaVencimiento&quot;: &quot;2025-12-15&quot;,&#xa;      &quot;importePrima&quot;: 2000.0,&#xa;      &quot;montoComision&quot;: 100.0,&#xa;      &quot;idCliente&quot;: &quot;C12345&quot;,&#xa;      &quot;idIntermediario&quot;: &quot;I67890&quot;&#xa;    }&#xa;  ],&#xa;  &quot;fechaVencimiento&quot;: &quot;2025-12-31&quot;,&#xa;  &quot;idUsuario&quot;: &quot;U1001&quot;,&#xa;  &quot;idTipoPersona&quot;: 1,&#xa;  &quot;idAutorizacion&quot;: &quot;AUTH12345&quot;,&#xa;  &quot;idPagoComision&quot;: &quot;1&quot;&#xa;}" style="text;whiteSpace=wrap;html=1;strokeColor=default;" vertex="1" parent="1">
          <mxGeometry x="-850" y="492.5" width="350" height="575" as="geometry" />
        </mxCell>
        <mxCell id="AGSc0J4f7E3v8w63l6Om-40" style="edgeStyle=orthogonalEdgeStyle;rounded=0;orthogonalLoop=1;jettySize=auto;html=1;" edge="1" parent="1" source="AGSc0J4f7E3v8w63l6Om-38">
          <mxGeometry relative="1" as="geometry">
            <mxPoint x="-460" y="1105" as="targetPoint" />
          </mxGeometry>
        </mxCell>
        <mxCell id="AGSc0J4f7E3v8w63l6Om-38" value="&lt;p class=&quot;p1&quot; style=&quot;margin: 0px; font-variant-numeric: normal; font-variant-east-asian: normal; font-variant-alternates: normal; font-size-adjust: none; font-kerning: auto; font-optical-sizing: auto; font-feature-settings: normal; font-variation-settings: normal; font-variant-position: normal; font-variant-emoji: normal; font-stretch: normal; line-height: normal;&quot;&gt;CalcularCronogramaIndividual&lt;/p&gt;" style="html=1;overflow=block;blockSpacing=1;whiteSpace=wrap;shape=component;align=center;spacingLeft=36;fontSize=13;fontStyle=1;spacing=0;strokeColor=#82b366;strokeOpacity=100;fillOpacity=100;rounded=1;absoluteArcSize=1;arcSize=9;fillColor=#d5e8d4;strokeWidth=1.5;lucidId=lD6s_1Mw1OkF;" vertex="1" parent="1">
          <mxGeometry x="-870" y="1080" width="240" height="50" as="geometry" />
        </mxCell>
        <mxCell id="AGSc0J4f7E3v8w63l6Om-39" value="Parametro" style="text;html=1;align=center;verticalAlign=middle;resizable=0;points=[];autosize=1;strokeColor=none;fillColor=none;" vertex="1" parent="1">
          <mxGeometry x="-850" y="440" width="80" height="30" as="geometry" />
        </mxCell>
        <mxCell id="AGSc0J4f7E3v8w63l6Om-41" value="&lt;p class=&quot;p1&quot; style=&quot;margin: 0px; font-variant-numeric: normal; font-variant-east-asian: normal; font-variant-alternates: normal; font-size-adjust: none; font-kerning: auto; font-optical-sizing: auto; font-feature-settings: normal; font-variation-settings: normal; font-variant-position: normal; font-variant-emoji: normal; font-stretch: normal; line-height: normal;&quot;&gt;reciboDA.Obtener&lt;/p&gt;" style="html=1;overflow=block;blockSpacing=1;whiteSpace=wrap;shape=component;align=center;spacingLeft=36;fontSize=13;fontStyle=1;spacing=0;strokeColor=#82b366;strokeOpacity=100;fillOpacity=100;rounded=1;absoluteArcSize=1;arcSize=9;fillColor=#d5e8d4;strokeWidth=1.5;lucidId=lD6s_1Mw1OkF;" vertex="1" parent="1">
          <mxGeometry x="-460" y="1080" width="240" height="50" as="geometry" />
        </mxCell>
        <mxCell id="AGSc0J4f7E3v8w63l6Om-42" value="Parámetros de Entrada&#xa;&#xa;    1.    idRamo (int): Identificador del ramo del recibo.&#xa;    2.    idProducto (int): Identificador del producto asociado al recibo.&#xa;    3.    idRecibo (long): Identificador único del recibo." style="text;whiteSpace=wrap;strokeColor=default;" vertex="1" parent="1">
          <mxGeometry x="-460" y="1150" width="380" height="100" as="geometry" />
        </mxCell>
        <mxCell id="AGSc0J4f7E3v8w63l6Om-43" value="Parámetros de Salida&#xa;&#xa;El método devuelve un objeto de tipo ReciboBE, que contiene los siguientes campos:&#xa;    1.    TipoCambio (float?): Tipo de cambio aplicado al recibo.&#xa;    2.    IdRamo (int): Identificador del ramo (igual al parámetro de entrada).&#xa;    3.    IdProducto (int): Identificador del producto (igual al parámetro de entrada).&#xa;    4.    IdRecibo (long): Identificador del recibo (igual al parámetro de entrada).&#xa;    5.    IdCliente (string): Identificador del cliente asociado al recibo.&#xa;    6.    FechaEfecto (DateTime?): Fecha de efecto del recibo.&#xa;    7.    MontoComision (double?): Monto de la comisión asociada al recibo.&#xa;    8.    FechaVencimiento (DateTime?): Fecha de vencimiento del recibo.&#xa;    9.    IdIntermediario (long?): Identificador del intermediario asociado.&#xa;    10.    IdPoliza (long): Identificador de la póliza asociada.&#xa;    11.    ImportePrima (double?): Importe de la prima del recibo.&#xa;    12.    FechaEmision (DateTime?): Fecha de emisión del recibo.&#xa;    13.    IdEstado (int): Estado del recibo.&#xa;    14.    FechaAnulacion (DateTime?): Fecha de anulación del recibo, si aplica.&#xa;    15.    IdEstadoRegistro (string): Estado del registro del recibo.&#xa;    16.    IdMoneda (int): Identificador de la moneda del recibo.&#xa;    17.    NumeroConsecutivoCupon (int): Número del cupón consecutivo asociado.&#xa;    18.    NumeroCuponera (long): Número de la cuponera de origen.&#xa;    19.    NumeroCuponeraIncluidoRecibo (long): Número de la cuponera en la que está incluido el recibo.&#xa;    20.    NumeroFraccionamiento (long): Número de fraccionamiento asociado al recibo.&#xa;    21.    IdDigitoControl (int): Código del dígito de control.&#xa;    22.    IdConvenioPago (int): Identificador del convenio de pago asociado." style="text;whiteSpace=wrap;strokeColor=default;" vertex="1" parent="1">
          <mxGeometry x="-460" y="1250" width="600" height="390" as="geometry" />
        </mxCell>
        <mxCell id="AGSc0J4f7E3v8w63l6Om-44" value="INSUDB.REAPREMIUM_RECEIPT_O" style="text;whiteSpace=wrap;html=1;" vertex="1" parent="1">
          <mxGeometry x="-440" y="1027.5" width="240" height="40" as="geometry" />
        </mxCell>
        <mxCell id="AGSc0J4f7E3v8w63l6Om-47" value="" style="sketch=0;outlineConnect=0;fontColor=#232F3E;gradientColor=none;fillColor=#C925D1;strokeColor=none;dashed=0;verticalLabelPosition=bottom;verticalAlign=top;align=center;html=1;fontSize=12;fontStyle=0;aspect=fixed;pointerEvents=1;shape=mxgraph.aws4.rds_oracle_instance;" vertex="1" parent="1">
          <mxGeometry x="-379" y="945" width="78" height="78" as="geometry" />
        </mxCell>
        <mxCell id="AGSc0J4f7E3v8w63l6Om-55" style="edgeStyle=orthogonalEdgeStyle;rounded=0;orthogonalLoop=1;jettySize=auto;html=1;" edge="1" parent="1" source="AGSc0J4f7E3v8w63l6Om-48">
          <mxGeometry relative="1" as="geometry">
            <mxPoint x="700" y="1105" as="targetPoint" />
          </mxGeometry>
        </mxCell>
        <mxCell id="AGSc0J4f7E3v8w63l6Om-48" value="&lt;p class=&quot;p1&quot; style=&quot;margin: 0px; font-variant-numeric: normal; font-variant-east-asian: normal; font-variant-alternates: normal; font-size-adjust: none; font-kerning: auto; font-optical-sizing: auto; font-feature-settings: normal; font-variation-settings: normal; font-variant-position: normal; font-variant-emoji: normal; font-stretch: normal; line-height: normal;&quot;&gt;reciboDA.CalcularDiferenciaFechaMeses&lt;/p&gt;" style="html=1;overflow=block;blockSpacing=1;whiteSpace=wrap;shape=component;align=center;spacingLeft=36;fontSize=13;fontStyle=1;spacing=0;strokeColor=#82b366;strokeOpacity=100;fillOpacity=100;rounded=1;absoluteArcSize=1;arcSize=9;fillColor=#d5e8d4;strokeWidth=1.5;lucidId=lD6s_1Mw1OkF;" vertex="1" parent="1">
          <mxGeometry x="70" y="1080" width="300" height="50" as="geometry" />
        </mxCell>
        <mxCell id="AGSc0J4f7E3v8w63l6Om-50" style="edgeStyle=orthogonalEdgeStyle;rounded=0;orthogonalLoop=1;jettySize=auto;html=1;entryX=0.088;entryY=0.5;entryDx=0;entryDy=0;entryPerimeter=0;" edge="1" parent="1" source="AGSc0J4f7E3v8w63l6Om-41" target="AGSc0J4f7E3v8w63l6Om-48">
          <mxGeometry relative="1" as="geometry" />
        </mxCell>
        <mxCell id="AGSc0J4f7E3v8w63l6Om-51" value="Parámetros de Entrada&#xa;&#xa;    1.    fechaInicial (DateTime): Fecha inicial para el cálculo.&#xa;    2.    fechaFinal (DateTime): Fecha final para el cálculo." style="text;whiteSpace=wrap;" vertex="1" parent="1">
          <mxGeometry x="70" y="840" width="340" height="80" as="geometry" />
        </mxCell>
        <mxCell id="AGSc0J4f7E3v8w63l6Om-52" value="Parámetros de Salida&#xa;&#xa;El método devuelve un valor entero que representa el número total de meses redondeado hacia arriba (usando Math.Ceiling).&#xa;    •    diferenciaFechas (int): Número de meses entre fechaInicial y fechaFinal." style="text;whiteSpace=wrap;" vertex="1" parent="1">
          <mxGeometry x="70" y="933" width="550" height="90" as="geometry" />
        </mxCell>
        <mxCell id="AGSc0J4f7E3v8w63l6Om-53" value="MONTHS_BETWEEN" style="text;whiteSpace=wrap;html=1;" vertex="1" parent="1">
          <mxGeometry x="230" y="1170" width="150" height="40" as="geometry" />
        </mxCell>
        <mxCell id="AGSc0J4f7E3v8w63l6Om-54" value="" style="sketch=0;outlineConnect=0;fontColor=#232F3E;gradientColor=none;fillColor=#C925D1;strokeColor=none;dashed=0;verticalLabelPosition=bottom;verticalAlign=top;align=center;html=1;fontSize=12;fontStyle=0;aspect=fixed;pointerEvents=1;shape=mxgraph.aws4.rds_oracle_instance;" vertex="1" parent="1">
          <mxGeometry x="140" y="1150" width="78" height="78" as="geometry" />
        </mxCell>
        <mxCell id="AGSc0J4f7E3v8w63l6Om-56" value="{&#xa;  &quot;diasFechaVencimiento&quot;: 30,&#xa;  &quot;listaCuotasBE&quot;: [&#xa;    {&#xa;      &quot;numeroCuota&quot;: 1,&#xa;      &quot;idEstadoCuota&quot;: 1,&#xa;      &quot;montoCuota&quot;: 100.50,&#xa;      &quot;montoNetoCuota&quot;: 95.00,&#xa;      &quot;montoComision&quot;: 5.50,&#xa;      &quot;fechaExpiracion&quot;: &quot;2024-12-31&quot;,&#xa;      &quot;montoInteres&quot;: 1.50,&#xa;      &quot;fechaEstado&quot;: &quot;2024-11-21&quot;,&#xa;      &quot;iva&quot;: 0.50,&#xa;      &quot;fechaLimite&quot;: &quot;2024-12-31&quot;,&#xa;      &quot;totalCuotaInicial&quot;: 1000.00,&#xa;      &quot;idIntermediario&quot;: 67890,&#xa;      &quot;fechaInicioVigenciaCupon&quot;: &quot;2024-12-01&quot;,&#xa;      &quot;fechaFinVigenciaCupon&quot;: &quot;2025-11-30&quot;&#xa;    },&#xa;    {&#xa;      &quot;numeroCuota&quot;: 2,&#xa;      &quot;idEstadoCuota&quot;: 1,&#xa;      &quot;montoCuota&quot;: 100.50,&#xa;      &quot;montoNetoCuota&quot;: 95.00,&#xa;      &quot;montoComision&quot;: 5.50,&#xa;      &quot;fechaExpiracion&quot;: &quot;2025-01-31&quot;,&#xa;      &quot;montoInteres&quot;: 1.50,&#xa;      &quot;fechaEstado&quot;: &quot;2024-11-21&quot;,&#xa;      &quot;iva&quot;: 0.50,&#xa;      &quot;fechaLimite&quot;: &quot;2025-01-31&quot;,&#xa;      &quot;totalCuotaInicial&quot;: 1000.00,&#xa;      &quot;idIntermediario&quot;: 67890,&#xa;      &quot;fechaInicioVigenciaCupon&quot;: &quot;2025-01-01&quot;,&#xa;      &quot;fechaFinVigenciaCupon&quot;: &quot;2025-02-28&quot;&#xa;    }&#xa;  ],&#xa;  &quot;listaMensajesBE&quot;: [&#xa;    {&#xa;      &quot;idError&quot;: 1,&#xa;      &quot;descripcion&quot;: &quot;Debe aumentar el valor de las cuotas a 100.00&quot;&#xa;    },&#xa;    {&#xa;      &quot;idError&quot;: 2,&#xa;      &quot;descripcion&quot;: &quot;Número de cuotas no puede ser mayor al período de vigencia de la póliza.&quot;&#xa;    }&#xa;  ]&#xa;}" style="text;whiteSpace=wrap;strokeColor=default;" vertex="1" parent="1">
          <mxGeometry x="750" y="825" width="530" height="700" as="geometry" />
        </mxCell>
        <mxCell id="AGSc0J4f7E3v8w63l6Om-57" value="Response" style="text;html=1;align=center;verticalAlign=middle;resizable=0;points=[];autosize=1;strokeColor=none;fillColor=none;" vertex="1" parent="1">
          <mxGeometry x="750" y="788" width="80" height="30" as="geometry" />
        </mxCell>
      </root>
    </mxGraphModel>
  </diagram>
</mxfile>
